<svg version="1.1" xmlns="http://www.w3.org/2000/svg" xmlns:xlink="http://www.w3.org/1999/xlink" width="806.2" height="598.96665" viewBox="0,0,806.2,598.96665"><g transform="translate(163.09998,119.48496)"><g data-paper-data="{&quot;isPaintingLayer&quot;:true}" fill-rule="nonzero" stroke-linecap="butt" stroke-linejoin="miter" stroke-miterlimit="10" stroke-dasharray="" stroke-dashoffset="0" style="mix-blend-mode: normal"><path d="M642.90003,389.31505c0,0 -4.5,53.4 -36.2,74.9c-31.7,21.5 -56.7,14 -56.7,14c0,0 -33.1,-8.1 -57.8,-41.9c-24.7,-33.8 -56.6,-129.2 -56.6,-129.2c-1.60544,-2.05911 -3.52972,-3.84835 -5.7,-5.3c-1.88569,-1.31495 -4.03577,-2.20228 -6.3,-2.6l-183.7,0.1l-183.7,-0.1c-2.26423,0.39772 -4.41431,1.28505 -6.3,2.6c-2.17027,1.45165 -4.09455,3.24089 -5.7,5.3c0,0 -31.9,95.5 -56.6,129.2c-24.7,33.7 -57.8,41.9 -57.8,41.9c0,0 -25,7.5 -56.7,-14c-31.7,-21.5 -36.2,-74.9 -36.2,-74.9c0,0 0.4,-66.9 4.7,-90.1c2.9,-15.5 17.7,-102.5 32,-144.6c9.3,-27.7 13,-53 17,-64.9c12,-35.7 33,-65.7 33,-65.7c0,0 9.5,-13 10.1,-16.3c0.6,-3.3 4.7,-8.6 4.7,-8.6c0,0 17.4,-5.7 62.3,-5.7c44.9,0 53.7,5 53.7,5c1.6502,1.95386 3.65127,3.58184 5.9,4.8c3.5,1.9 11.7,1.7 11.7,1.7h33.4c0.33051,-0.04732 0.66399,0.06384 0.9,0.3c0.29707,0.63361 0.49923,1.3075 0.6,2h266.1c0.0654,-0.69986 0.26935,-1.37971 0.6,-2c0.23046,-0.245 0.56864,-0.35772 0.9,-0.3h33.4c0,0 8.2,0.1 11.7,-1.7c2.2247,-1.25375 4.21984,-2.87692 5.9,-4.8c0,0 8.8,-5 53.7,-5c44.9,0 62.3,5.7 62.3,5.7c0,0 4.1,5.4 4.7,8.6c0.6,3.2 10.1,16.3 10.1,16.3c0,0 21,30 33,65.7c3.9,11.9 7.6,37.2 17,64.9c14.3,42.1 29.1,129.1 32,144.6c4.4,23.1 4.6,90.1 4.6,90.1z" fill="#00f1ff" stroke="none" stroke-width="1"/><path d="M-158.39998,301.11503c-4,20.9 -4.6,77.4 -4.7,88.3v-0.1c0,0 0.4,-66.9 4.7,-90.1c2.9,-15.5 17.7,-102.5 32,-144.6c9.3,-27.7 13,-53 17,-64.9c12,-35.7 33,-65.7 33,-65.7c0,0 9.5,-13 10.1,-16.3c0.6,-3.3 4.7,-8.6 4.7,-8.6c0,0 17.4,-5.7 62.3,-5.7c44.9,0 53.7,5 53.7,5c1.6502,1.95386 3.65127,3.58184 5.9,4.8c3.5,1.9 11.7,1.7 11.7,1.7h33.4c0.33051,-0.04732 0.66399,0.06384 0.9,0.3c0.29707,0.63361 0.49923,1.3075 0.6,2h266.2c0.0654,-0.69986 0.26936,-1.37971 0.6,-2c0.23046,-0.245 0.56864,-0.35772 0.9,-0.3h33.4c0,0 8.2,0.1 11.7,-1.7c2.2247,-1.25375 4.21984,-2.87692 5.9,-4.8c0,0 8.8,-5 53.7,-5c44.9,0 62.3,5.7 62.3,5.7c0,0 4.1,5.4 4.7,8.6c0.6,3.2 10.1,16.3 10.1,16.3c0,0 21,30 33,65.7c3.9,11.9 7.6,37.2 17,64.9c14.3,42.1 29.1,129.1 32,144.6c4.4,23.2 4.7,90.1 4.7,90.1v0.1c-0.1,-11 -0.8,-67.4 -4.7,-88.3c-2.9,-15.5 -17.7,-102.5 -32,-144.6c-9.3,-27.7 -13,-53 -17,-64.9c-12,-35.7 -33,-65.7 -33,-65.7c0,0 -9.5,-13 -10.1,-16.3c-0.6,-3.3 -4.7,-8.6 -4.7,-8.6c0,0 -17.4,-5.7 -62.3,-5.7c-44.9,0 -53.7,5 -53.7,5c-1.6502,1.95385 -3.65127,3.58184 -5.9,4.8c-3.5,1.9 -11.7,1.7 -11.7,1.7h-33.4c-0.33051,-0.04732 -0.66399,0.06384 -0.9,0.3c-0.29706,0.63361 -0.49923,1.3075 -0.6,2h-266.2c-0.06539,-0.69986 -0.26936,-1.37971 -0.6,-2c-0.23046,-0.245 -0.56864,-0.35772 -0.9,-0.3h-33.4c0,0 -8.2,0.1 -11.7,-1.7c-2.2247,-1.25375 -4.21984,-2.87692 -5.9,-4.8c0,0 -8.8,-5 -53.7,-5c-44.9,0 -62.3,5.7 -62.3,5.7c0,0 -4.1,5.4 -4.7,8.6c-0.6,3.2 -10.1,16.3 -10.1,16.3c0,0 -21,30 -33,65.7c-3.9,11.9 -7.6,37.2 -17,64.9c-14.3,42.1 -29,129.2 -32,144.6z" fill="#00cdd8" stroke="none" stroke-width="1"/><path d="M188.10003,242.51505c0.08317,0.66324 0.11659,1.33177 0.1,2c0,42.24979 -34.25021,76.5 -76.5,76.5c-42.24978,0 -76.5,-34.25021 -76.5,-76.5c0,-0.7 0.1,-1.3 0.1,-2c-0.08317,-0.66324 -0.1166,-1.33177 -0.1,-2c0,-42.24978 34.25021,-76.5 76.5,-76.5c42.24979,0 76.5,34.25021 76.5,76.5c0,0.6 -0.1,1.3 -0.1,2z" fill="#00c1cb" stroke="none" stroke-width="1"/><path d="M38.7,236.51505c0,-40.31679 32.68321,-73 73,-73c40.31679,0 73,32.68321 73,73c0,40.31678 -32.68321,73 -73,73c-40.31679,0 -73,-32.68322 -73,-73z" fill="#00dae6" stroke="none" stroke-width="1"/><path d="M60.20003,236.51505c0,-28.44267 23.05733,-51.5 51.5,-51.5c28.44267,0 51.5,23.05733 51.5,51.5c0,28.44266 -23.05733,51.5 -51.5,51.5c-28.44267,0 -51.5,-23.05734 -51.5,-51.5z" fill="#a58100" stroke="none" stroke-width="1"/><path d="M444.70003,242.51505c0.08317,0.66324 0.1166,1.33177 0.1,2c0,42.24979 -34.25021,76.5 -76.5,76.5c-42.24979,0 -76.5,-34.25021 -76.5,-76.5c0,-0.7 0.1,-1.3 0.1,-2c-0.08317,-0.66324 -0.11659,-1.33177 -0.1,-2c0,-42.24978 34.25021,-76.5 76.5,-76.5c42.24979,0 76.5,34.25021 76.5,76.5c0.01418,0.66819 -0.01924,1.33655 -0.1,2z" fill="#00c1cb" stroke="none" stroke-width="1"/><path d="M295.30001,236.51505c0,-40.31679 32.68322,-73 73,-73c40.31678,0 73,32.68321 73,73c0,40.31678 -32.68322,73 -73,73c-40.31678,0 -73,-32.68322 -73,-73z" fill="#00dae6" stroke="none" stroke-width="1"/><path d="M316.80001,236.51505c0,-28.44267 23.05734,-51.5 51.5,-51.5c28.44266,0 51.5,23.05733 51.5,51.5c0,28.44266 -23.05734,51.5 -51.5,51.5c-28.44266,0 -51.5,-23.05734 -51.5,-51.5z" fill="#a58100" stroke="none" stroke-width="1"/><path d="M371.90003,10.61505v127.4c0.00266,4.2708 -1.69274,8.36744 -4.71265,11.38735c-3.01991,3.01991 -7.11655,4.71531 -11.38735,4.71265h-231.6c-4.2708,0.00266 -8.36744,-1.69274 -11.38735,-4.71265c-3.01991,-3.01991 -4.71531,-7.11655 -4.71265,-11.38735v-127.4c-0.01659,-0.70148 0.01682,-1.40326 0.1,-2.1c0.44374,-3.23911 3.23088,-5.64034 6.5,-5.6h250.6c3.25465,-0.00099 6.01948,2.38102 6.5,5.6c0.13297,0.69169 0.16664,1.3988 0.1,2.1z" fill="#121212" stroke="none" stroke-width="1"/><g stroke="none" stroke-width="1"><path d="M367.50003,10.91505v123.1c-0.01102,8.61108 -6.98892,15.58898 -15.6,15.6h-223.8c-8.61107,-0.01102 -15.58898,-6.98892 -15.6,-15.6v-129.2c0,-1.04934 0.85066,-1.9 1.9,-1.9h251.1c1.04934,0 1.9,0.85066 1.9,1.9z" fill="#080808"/><g fill="#000000" opacity="0.12"><path d="M112.60003,134.01504v-106.5h254.9v106.5c-0.01102,8.61108 -6.98892,15.58898 -15.6,15.6h-223.8c-8.61107,-0.01102 -15.58898,-6.98892 -15.6,-15.6z"/></g></g><path d="M395.00003,125.31505c0,-52.08045 42.21955,-94.3 94.3,-94.3c52.08045,0 94.3,42.21955 94.3,94.3c0,52.08045 -42.21955,94.3 -94.3,94.3c-52.08045,0 -94.3,-42.21955 -94.3,-94.3z" fill="#00dae6" stroke="none" stroke-width="1"/><g stroke="none" stroke-width="1"><path d="M-103.59997,125.31505c0,-52.08045 42.21955,-94.3 94.3,-94.3c52.08045,0 94.3,42.21955 94.3,94.3c0,52.08045 -42.21955,94.3 -94.3,94.3c-52.08045,0 -94.3,-42.21955 -94.3,-94.3z" fill="#00dae6"/><path d="M66.15737,134.78286c-0.41097,-0.19467 -0.66863,-0.61322 -0.65735,-1.06782v-17.8c0.0015,-0.44926 0.27131,-0.85415 0.68537,-1.02849c0.41406,-0.17434 0.89222,-0.08439 1.21463,0.22849l9.5,8.9c0.23913,0.21792 0.3754,0.52647 0.3754,0.85c0,0.32353 -0.13627,0.63208 -0.3754,0.85l-9.5,8.9c-0.34461,0.29671 -0.83169,0.36249 -1.24265,0.16782z" fill="#a58100"/><path d="M-19.04309,49.646c-0.19135,-0.40396 -0.13581,-0.88166 0.14311,-1.23095l8.9,-9.5c0.21791,-0.23913 0.52647,-0.3754 0.85,-0.3754c0.32353,0 0.63209,0.13628 0.85,0.3754l8.9,9.5c0.31288,0.32241 0.40283,0.80057 0.2285,1.21463c-0.17434,0.41406 -0.57923,0.68387 -1.02849,0.68537h-17.8c-0.44696,-0.00545 -0.85176,-0.26509 -1.04311,-0.66905z" fill="#a58100"/><path d="M-84.25732,114.94722c0.41097,0.19467 0.66863,0.61322 0.65735,1.06782v17.8c-0.0015,0.44926 -0.27131,0.85416 -0.68537,1.0285c-0.41406,0.17434 -0.89222,0.08439 -1.21463,-0.2285l-9.5,-8.9c-0.23913,-0.21792 -0.37541,-0.52647 -0.37541,-0.85c0,-0.32353 0.13628,-0.63208 0.37541,-0.85l9.5,-8.9c0.34461,-0.29671 0.83168,-0.36249 1.24265,-0.16782z" fill="#a58100"/><path d="M0.84314,199.9841c0.19135,0.40396 0.13582,0.88166 -0.14311,1.23095l-8.9,9.5c-0.21791,0.23913 -0.52647,0.37541 -0.85,0.37541c-0.32353,0 -0.63208,-0.13628 -0.85,-0.37541l-8.9,-9.5c-0.31289,-0.32241 -0.40284,-0.80057 -0.2285,-1.21463c0.17434,-0.41406 0.57923,-0.68387 1.0285,-0.68537h17.8c0.44696,0.00545 0.85176,0.26508 1.04311,0.66905z" fill="#a58100"/></g><g fill="#080808" stroke="none" stroke-width="1"><path d="M384.60003,15.11505c-0.15049,2.15344 -1.9413,3.82347 -4.1,3.82347c-2.1587,0 -3.94951,-1.67003 -4.1,-3.82347c0.0027,-1.06008 0.44579,-2.07137 1.22329,-2.79198c0.7775,-0.72061 1.81948,-1.08572 2.87671,-1.00802c1.06169,-0.09652 2.11444,0.26219 2.89632,0.98686c0.78188,0.72467 1.21939,1.74719 1.20367,2.81314zM377.90003,15.11505c-0.06139,0.71552 0.18914,1.42272 0.68729,1.94002c0.49815,0.5173 1.19538,0.79434 1.91271,0.75998c0.71267,0.01827 1.40021,-0.26379 1.89471,-0.77731c0.4945,-0.51352 0.75043,-1.21121 0.70529,-1.92269c0,-1.43594 -1.16406,-2.6 -2.6,-2.6c-1.43594,0 -2.6,1.16406 -2.6,2.6z"/><path d="M385.90003,11.51505h3.8c2.4,0 2.9,1.3 2.9,2.2c0,0.9 -0.5,2.2 -2.9,2.2h-2.3v2.8h-1.5zM387.40003,14.91505h2.2c0.7,0 1.5,-0.3 1.5,-1.2c0,-0.9 -0.7,-1.2 -1.5,-1.2h-2.2z"/><path d="M393.10003,11.51505h6.9v1.1h-2.7v6.1h-1.5v-6.1h-2.7z"/><path d="M401.10003,11.51505h1.5v7.2h-1.5z"/><path d="M412.10003,15.11505c-0.15049,2.15344 -1.9413,3.82347 -4.1,3.82347c-2.1587,0 -3.94951,-1.67003 -4.1,-3.82347c0.0027,-1.06008 0.44579,-2.07137 1.22329,-2.79198c0.7775,-0.72061 1.81948,-1.08572 2.87671,-1.00802c1.06169,-0.09652 2.11444,0.26219 2.89632,0.98686c0.78188,0.72467 1.21939,1.74719 1.20367,2.81314zM405.40003,15.11505c-0.06139,0.71552 0.18914,1.42272 0.68729,1.94002c0.49815,0.5173 1.19538,0.79434 1.91271,0.75998c0.71267,0.01827 1.40021,-0.26379 1.89471,-0.77731c0.4945,-0.51352 0.75043,-1.21121 0.70529,-1.92269c0,-1.43594 -1.16406,-2.6 -2.6,-2.6c-1.43594,0 -2.6,1.16406 -2.6,2.6z"/><path d="M413.50003,11.51505h1.5l3.9,5.3v0v-5.3h1.4v7.2h-1.6l-3.9,-5.3v0v5.3h-1.4v-7.2z"/><path d="M423.20003,16.31502c0,1.1 1,1.5 2.2,1.5c1.2,0 1.8,-0.6 1.8,-1.1c0.01469,-0.4297 -0.2799,-0.80846 -0.7,-0.9c-0.6,-0.2 -1.4,-0.3 -2.6,-0.6c-1.5,-0.3 -1.9,-1.1 -1.9,-1.8c0,-1.5 1.6,-2.1 3.1,-2.1c1.8,0 3.3,0.8 3.3,2.3h-1.5c-0.1,-0.9 -0.8,-1.3 -1.8,-1.3c-0.7,0 -1.6,0.2 -1.6,0.9c0,0.5 0.4,0.8 1,0.9c0.84458,0.14986 1.6794,0.35022 2.5,0.6c0.90258,0.15764 1.59415,0.88988 1.7,1.8c0,1.6 -1.7,2.3 -3.4,2.3c-2,0 -3.5,-0.8 -3.6,-2.6h1.5z"/></g><g fill="#080808" stroke="none" stroke-width="1"><path d="M59.20003,16.31502c0,1.1 1,1.5 2.2,1.5c1.2,0 1.8,-0.6 1.8,-1.1c0.01469,-0.4297 -0.2799,-0.80846 -0.7,-0.9c-0.6,-0.2 -1.4,-0.3 -2.6,-0.6c-1.5,-0.3 -1.9,-1.1 -1.9,-1.8c0,-1.5 1.6,-2.1 3.1,-2.1c1.8,0 3.3,0.8 3.3,2.3h-1.5c-0.1,-0.9 -0.8,-1.3 -1.8,-1.3c-0.7,0 -1.6,0.2 -1.6,0.9c0,0.5 0.4,0.8 1,0.9c0.84457,0.14986 1.67941,0.35022 2.5,0.6c0.90259,0.15764 1.59415,0.88988 1.7,1.8c0,1.6 -1.7,2.3 -3.4,2.3c-2,0 -3.5,-0.8 -3.6,-2.6h1.5z"/><path d="M65.9,11.51505h1.5v2.9h3.9v-2.9h1.5v7.2h-1.5v-3.3h-3.9v3.2h-1.5z"/><path d="M76.9,11.51505h1.6l3.3,7.2h-1.6l-0.8,-1.9h-3.4l-0.8,1.9h-1.5zM76.4,15.81505h2.6l-1.3,-3.1v0z"/><path d="M82.60003,11.51505h4.1c1.9,0 2.8,0.7 2.8,1.9c0.03349,0.86073 -0.55751,1.62059 -1.4,1.8v0c0.76377,0.07378 1.33553,0.7335 1.3,1.5c0,0.8 0.1,1.6 0.5,1.9h-1.6c-0.16988,-0.3402 -0.23926,-0.72178 -0.2,-1.1c0,-1.3 -0.3,-1.9 -1.7,-1.9h-2.2v3h-1.5zM84.10003,14.71505h2.5c1,0 1.5,-0.4 1.5,-1.1c0,-0.9 -0.7,-1.1 -1.5,-1.1h-2.4v2.2z"/><path d="M91.10003,11.51505h6.2v1.1h-4.7v1.9h4.3v1h-4.3v2.1h4.7v1.1h-6.2z"/></g><g stroke="none" stroke-width="1"><path d="M482.80003,-17.98499c-37.7,0 -47.5,2.9 -47.5,2.9c-0.01538,-0.84129 0.45045,-1.61767 1.2,-2c4,-2.1 18.2,-8 45.1,-8c28.1,0 47,10.7 51.5,13.6c0.68836,0.38267 1.11089,1.11251 1.1,1.9c0,0 -13.7,-8.4 -51.4,-8.4z" fill="#daab00"/><path d="M479.30003,-6.68495c-22.9,0 -36.4,1.3 -44.1,2.6v0v-11c0,0 9.8,-2.9 47.5,-2.9c37.7,0 51.4,8.4 51.4,8.4v6.9v0c-8.9,-1.6 -26.3,-3.9 -54.8,-4z" fill="#ffc600"/></g><g stroke="none" stroke-width="1"><path d="M-54.19997,-9.58496c-0.01089,-0.78749 0.41164,-1.51733 1.1,-1.9c4.5,-2.9 23.4,-13.6 51.5,-13.6c26.9,0 41.1,5.9 45.1,8c0.74956,0.38233 1.21539,1.15871 1.2,2c0,0 -9.8,-2.9 -47.5,-2.9c-37.7,0 -51.4,8.4 -51.4,8.4z" fill="#daab00"/><path d="M-54.09997,-2.68495v0v-6.9c0,0 13.7,-8.4 51.4,-8.4c37.7,0 47.5,2.9 47.5,2.9v11v0c-7.7,-1.3 -21.2,-2.6 -44.1,-2.6c-28.5,0.1 -45.9,2.4 -54.8,4z" fill="#ffc600"/></g><path d="M546.90003,151.51504c-14.52509,0 -26.3,-11.77491 -26.3,-26.3c0,-14.52509 11.77491,-26.3 26.3,-26.3c14.52509,0 26.3,11.77491 26.3,26.3c-0.01653,14.51824 -11.78176,26.28347 -26.3,26.3z" fill="#2c2c2c" stroke="none" stroke-width="1"/><path d="M546.90003,100.01505c-13.96595,0.01653 -25.28347,11.33405 -25.3,25.3c0,13.97281 11.32719,25.3 25.3,25.3c13.9728,0 25.3,-11.32719 25.3,-25.3c0,-13.9728 -11.32719,-25.3 -25.3,-25.3M574.19999,125.31505c0,15.07738 -12.22262,27.3 -27.3,27.3c-15.07737,0 -27.3,-12.22262 -27.3,-27.3c0,-15.07738 12.22262,-27.3 27.3,-27.3c15.06824,0.02203 27.27797,12.23176 27.3,27.3z" fill="#222222" stroke="none" stroke-width="1"/><path d="M565.80003,125.31505c0,10.43818 -8.46182,18.9 -18.9,18.9c-10.43818,0 -18.9,-8.46182 -18.9,-18.9c0,-10.43818 8.46182,-18.9 18.9,-18.9c10.42678,0.02747 18.87252,8.47322 18.9,18.9zM562.90003,125.31505c0,-8.83656 -7.16345,-16 -16,-16c-8.83655,0 -16,7.16344 -16,16c0,8.83655 7.16345,16 16,16c8.83655,0 16,-7.16344 16,-16z" fill="#ff6666" stroke="#ff6666" stroke-width="1.5"/><path d="M489.30003,209.11505c-14.52509,0 -26.3,-11.77491 -26.3,-26.3c0,-14.52509 11.77491,-26.3 26.3,-26.3c14.52509,0 26.3,11.77491 26.3,26.3c-0.01653,14.51824 -11.78177,26.28347 -26.3,26.3z" fill="#2c2c2c" stroke="none" stroke-width="1"/><path d="M489.30003,157.61505c-13.96595,0.01653 -25.28347,11.33405 -25.3,25.3c0,13.9728 11.3272,25.3 25.3,25.3c13.9728,0 25.3,-11.32719 25.3,-25.3c0,-13.9728 -11.3272,-25.3 -25.3,-25.3M516.60002,182.91505c0,15.07737 -12.22262,27.3 -27.3,27.3c-15.07738,0 -27.3,-12.22262 -27.3,-27.3c0,-15.07737 12.22262,-27.3 27.3,-27.3c15.06824,0.02203 27.27797,12.23176 27.3,27.3z" fill="#222222" stroke="none" stroke-width="1"/><path d="M491.30003,182.91505l12.4,12.3l-2,2.1l-12.4,-12.4l-12.3,12.4l-2,-2.1l12.3,-12.3l-12.3,-12.4l2,-2l12.3,12.4l12.4,-12.4l2,2z" fill="#7cb2e8" stroke="#7cb2e8" stroke-width="1.5"/><path d="M431.48753,151.51504c-10.65545,0.04044 -20.28234,-6.35249 -24.3787,-16.18915c-4.09636,-9.83666 -1.85262,-21.17297 5.68198,-28.70757c7.5346,-7.53459 18.8709,-9.77835 28.70757,-5.68198c9.83666,4.09637 16.22959,13.72325 16.18915,24.3787c-0.07112,14.4403 -11.7597,26.12888 -26.2,26.2z" fill="#2c2c2c" stroke="none" stroke-width="1"/><path d="M431.38753,100.01505c-13.96595,0.01653 -25.28347,11.33405 -25.3,25.3c0,13.97281 11.3272,25.3 25.3,25.3c13.9728,0 25.3,-11.32719 25.3,-25.3c0,-13.9728 -11.3272,-25.3 -25.3,-25.3M458.68753,125.31505c0,15.07738 -12.22262,27.3 -27.3,27.3c-15.07738,0 -27.3,-12.22262 -27.3,-27.3c0,-15.07738 12.22262,-27.3 27.3,-27.3c15.06824,0.02203 27.27797,12.23176 27.3,27.3z" fill="#222222" stroke="none" stroke-width="1"/><path d="M445.78753,110.91505v28.6h-28.6v-28.6h25.8zM442.98753,113.81505h-23v23h23z" fill="#ff69f8" stroke="#ff69f8" stroke-width="1.5"/><path d="M488.98753,94.01505c-14.52509,0 -26.3,-11.77491 -26.3,-26.3c0,-14.52509 11.77491,-26.3 26.3,-26.3c14.52509,0 26.3,11.77491 26.3,26.3c-0.01653,14.51824 -11.78177,26.28347 -26.3,26.3z" fill="#2c2c2c" stroke="none" stroke-width="1"/><path d="M488.98753,42.51505c-13.96595,0.01653 -25.28347,11.33405 -25.3,25.3c0,13.9728 11.3272,25.3 25.3,25.3c13.9728,0 25.3,-11.3272 25.3,-25.3c0,-13.9728 -11.3272,-25.3 -25.3,-25.3M516.28752,67.81503c0,15.07738 -12.22262,27.3 -27.3,27.3c-15.07738,0 -27.3,-12.22262 -27.3,-27.3c0,-15.07738 12.22262,-27.3 27.3,-27.3c15.06824,0.02203 27.27797,12.23176 27.3,27.3z" fill="#222222" stroke="none" stroke-width="1"/><path d="M506.58753,78.51502h-35.2l1.6,-2.8l16,-27.6l16,27.6zM501.68753,75.71501l-12.7,-21.9l-12.7,21.9h12.7z" fill="#00ff99" stroke="#00ff90" stroke-width="1.5"/><g fill="#006267" stroke="none" stroke-width="1"><path d="M235.90003,196.91505c0,-2.26436 1.83564,-4.1 4.1,-4.1c2.26436,0 4.1,1.83564 4.1,4.1c0,2.26436 -1.83563,4.1 -4.1,4.1c-2.26436,0 -4.1,-1.83563 -4.1,-4.1z"/><path d="M235.90003,176.01505c0,-2.26436 1.83564,-4.1 4.1,-4.1c2.26436,0 4.1,1.83563 4.1,4.1c0,2.26436 -1.83563,4.1 -4.1,4.1c-2.26436,0 -4.1,-1.83563 -4.1,-4.1z"/><path d="M229.00003,186.21505c0,-2.26436 1.83563,-4.1 4.1,-4.1c2.26436,0 4.1,1.83563 4.1,4.1c0,2.26436 -1.83563,4.1 -4.1,4.1c-2.26436,0 -4.1,-1.83563 -4.1,-4.1z"/><path d="M214.30003,186.21505c0,-2.26436 1.83563,-4.1 4.1,-4.1c2.26436,0 4.1,1.83563 4.1,4.1c0,2.26436 -1.83564,4.1 -4.1,4.1c-2.26436,0 -4.1,-1.83563 -4.1,-4.1z"/><path d="M221.60003,196.91505c0,-2.26436 1.83563,-4.1 4.1,-4.1c2.26436,0 4.1,1.83564 4.1,4.1c0,2.26436 -1.83563,4.1 -4.1,4.1c-2.26436,0 -4.1,-1.83563 -4.1,-4.1z"/><path d="M221.60003,176.01505c0,-2.26436 1.83563,-4.1 4.1,-4.1c2.26436,0 4.1,1.83563 4.1,4.1c0,2.26436 -1.83563,4.1 -4.1,4.1c-2.26436,0 -4.1,-1.83563 -4.1,-4.1z"/><path d="M207.30003,176.01505c0,-2.26436 1.83563,-4.1 4.1,-4.1c2.26436,0 4.1,1.83563 4.1,4.1c0,2.26436 -1.83564,4.1 -4.1,4.1c-2.26436,0 -4.1,-1.83563 -4.1,-4.1z"/></g><g fill="#006267" stroke="none" stroke-width="1"><path d="M242.80003,186.21505c0,-2.26436 1.83563,-4.1 4.1,-4.1c2.26436,0 4.1,1.83563 4.1,4.1c0,2.26436 -1.83564,4.1 -4.1,4.1c-2.26436,0 -4.1,-1.83563 -4.1,-4.1z"/><path d="M257.50524,186.36765c-0.08693,-2.2627 1.67689,-4.16744 3.93959,-4.25437c2.2627,-0.08693 4.16744,1.67689 4.25437,3.93959c0.08693,2.2627 -1.67689,4.16744 -3.93959,4.25437c-2.2627,0.08693 -4.16744,-1.67688 -4.25437,-3.93958z"/><path d="M250.10003,196.91505c0,-2.26436 1.83563,-4.1 4.1,-4.1c2.26436,0 4.1,1.83564 4.1,4.1c0,2.26436 -1.83564,4.1 -4.1,4.1c-2.26436,0 -4.1,-1.83563 -4.1,-4.1z"/><path d="M250.10003,176.01505c0,-2.26436 1.83563,-4.1 4.1,-4.1c2.26436,0 4.1,1.83563 4.1,4.1c0,2.26436 -1.83564,4.1 -4.1,4.1c-2.26436,0 -4.1,-1.83563 -4.1,-4.1z"/><path d="M264.50003,176.01505c0,-2.26436 1.83563,-4.1 4.1,-4.1c2.26436,0 4.1,1.83563 4.1,4.1c0,2.26436 -1.83564,4.1 -4.1,4.1c-2.26436,0 -4.1,-1.83563 -4.1,-4.1z"/></g><path d="M219.80003,242.51505c0,-11.15615 9.04385,-20.2 20.2,-20.2c11.15615,0 20.2,9.04385 20.2,20.2c0,11.15615 -9.04385,20.2 -20.2,20.2c-11.15615,0 -20.2,-9.04385 -20.2,-20.2z" fill="#00dae6" stroke="#00dae6" stroke-width="2"/><g fill="#f2f2f2" stroke="none" stroke-width="1"><path d="M241.10003,249.81505v0v3.6l-4.7,-1.5v-1.5v0v-2.5v0v-1.7v0v-2.7v0v-12.2c0.9,0.2 1.8,0.4 2.9,0.7c1.1,0.3 2.3,0.7 3.6,1.1c1.58365,0.46458 3.00452,1.36561 4.1,2.6c0.8959,1.24633 1.32107,2.76986 1.2,4.3c0,1.8 -0.5,3 -1.5,3.7c-0.46889,0.32791 -1.02783,0.50259 -1.6,0.5c-0.72997,0.00421 -1.45024,-0.16729 -2.1,-0.5v-6.9c0,-1 -0.3,-1.5 -0.9,-1.7c-0.25106,-0.11043 -0.54518,-0.0264 -0.7,0.2c-0.23212,0.27851 -0.34048,0.63971 -0.3,1v12.8z"/><path d="M235.90003,250.41505c-1.08993,0.1902 -2.19364,0.29054 -3.3,0.3c-1.44984,0.0392 -2.89784,-0.12917 -4.3,-0.5c-1.7,-0.4 -2.6,-1.1 -2.7,-1.9c0,-0.6 0.7,-1.2 2.2,-1.8l1,-0.4l5.5,-2l1.7,-0.5v2.7l-4.1,1.5l-1.1,0.4c-0.1,0.1 -0.3,0.1 -0.4,0.2c-0.1,0.1 -0.1,0 -0.3,0.2c-0.2,0.2 -0.1,0.4 0.2,0.6l1.5,0.2l1.6,-0.3l0.9,-0.4l1.7,-0.6z"/><path d="M254.20003,247.51505c0,0.7 -0.7,1.4 -2.2,1.9l-0.7,0.4l-6.4,2.3l-3.5,1.3v-2.7l6.5,-2.4l1.4,-0.5c0.6,-0.2 0.9,-0.4 0.8,-0.6c-0.1,-0.2 -0.4,-0.3 -0.7,-0.4h-1.4l-1.1,0.3l-1.6,0.5l-3.9,1.4v-2.8c0.8411,-0.34358 1.71123,-0.61132 2.6,-0.8c0.92738,-0.14937 1.86202,-0.24951 2.8,-0.3c0.83434,-0.06662 1.67365,-0.03305 2.5,0.1c0.85126,0.11612 1.68876,0.31712 2.5,0.6c1.6,0.5 2.4,1 2.4,1.7z"/></g><path d="M1.80003,412.51505c-4.12187,8.26191 -8.83409,16.21586 -14.1,23.8c-24.7,33.7 -57.8,41.9 -57.8,41.9c0,0 -25,7.5 -56.7,-14c-31.7,-21.5 -36.2,-74.9 -36.2,-74.9c0,0 0,-11.3 0.4,-26.3c0,0 6,21.3 17.5,31.5c11.5,10.2 46.8,27.7 87.3,30.5c40.4,2.7 59.5,-12.6 59.6,-12.5z" fill="#ff73f0" stroke="none" stroke-width="1"/><path d="M537.80003,425.01505c40.5,-2.8 75.8,-20.3 87.3,-30.5c11.5,-10.2 17.5,-31.5 17.5,-31.5c0.4,15 0.4,26.3 0.4,26.3c0,0 -4.5,53.4 -36.2,74.9c-31.7,21.5 -56.7,14 -56.7,14c0,0 -33.1,-8.2 -57.8,-41.9c-5.26591,-7.58414 -9.97813,-15.53809 -14.1,-23.8c0.1,-0.1 19.2,15.2 59.6,12.5z" fill="#ff73f0" stroke="none" stroke-width="1"/><g stroke="none" stroke-width="1"><path d="M77.50002,24.01505c-6.90356,0 -12.5,5.59644 -12.5,12.5v18.3c0,6.90356 5.59644,12.5 12.5,12.5c6.90356,0 12.5,-5.59644 12.5,-12.5v-18.3c0,-6.90356 -5.59644,-12.5 -12.5,-12.5M87.54388,26.4712c2.66359,2.66359 4.15881,6.27696 4.15615,10.04385v18.3c0,7.84244 -6.35756,14.2 -14.2,14.2c-7.84244,0 -14.2,-6.35756 -14.2,-14.2v-18.3c0.02743,-7.83105 6.36894,-14.17257 14.2,-14.2c3.76689,-0.00266 7.38026,1.49256 10.04385,4.15615z" fill="#00474b"/><path d="M90.00003,36.51503v18.3c0,6.90356 -5.59644,12.5 -12.5,12.5c-6.90356,0 -12.5,-5.59644 -12.5,-12.5v-18.3c0,-6.90356 5.59644,-12.5 12.5,-12.5c6.90356,0 12.5,5.59644 12.5,12.5z" fill="#006267"/></g><g stroke="none" stroke-width="1"><path d="M402.50003,24.01505v0c-6.90356,0 -12.5,5.59644 -12.5,12.5v18.3c0,6.90356 5.59644,12.5 12.5,12.5v0c6.90356,0 12.5,-5.59644 12.5,-12.5v-18.3c0,-6.90356 -5.59644,-12.5 -12.5,-12.5M412.54388,26.4712c2.66359,2.66359 4.15881,6.27696 4.15615,10.04385v18.3c0,7.84244 -6.35755,14.2 -14.2,14.2c-7.84244,0 -14.2,-6.35756 -14.2,-14.2v-18.3c0.02743,-7.83105 6.36894,-14.17257 14.2,-14.2c3.76689,-0.00266 7.38026,1.49256 10.04385,4.15615z" fill="#00474b"/><path d="M415.00003,36.51503v18.3c0,6.90356 -5.59644,12.5 -12.5,12.5c-6.90356,0 -12.5,-5.59644 -12.5,-12.5v-18.3c0,-6.90356 5.59644,-12.5 12.5,-12.5c6.90356,0 12.5,5.59644 12.5,12.5z" fill="#006267"/></g><g stroke="none" stroke-width="1"><g><path d="M-37.49999,141.71505c-0.7,0.4 -28.5,2.2 -31.4,-1.3c-2.9,-3.5 -2.6,-15.6 -2.6,-15.6c0,0 -0.3,-12.1 2.6,-15.6c2.9,-3.5 30.7,-1.7 31.4,-1.3c0.7,0.4 14.3,12 15.7,14c1.4,2 1.2,2.9 1.2,2.9c0,0 0.2,0.9 -1.2,2.9c-1.4,2 -15,13.6 -15.7,14z" fill="#daab00"/><path d="M-32.99999,138.01504c-2.25502,-4.03224 -3.42645,-8.58011 -3.4,-13.2c0.02204,-4.61376 1.19038,-9.14971 3.4,-13.2c4.3,3.7 10.3,9 11.2,10.3c1.4,2 1.2,2.9 1.2,2.9c0,0 0.2,0.9 -1.2,2.9c-0.9,1.3 -6.9,6.6 -11.2,10.3z" fill="#000000" opacity="0.25"/></g><g><path d="M-25.99997,96.41505c-0.4,-0.7 -2.2,-28.5 1.3,-31.4c3.5,-2.9 15.6,-2.6 15.6,-2.6c0,0 12.1,-0.3 15.6,2.6c3.5,2.9 1.7,30.7 1.3,31.4c-0.4,0.7 -12,14.3 -14,15.7c-2,1.4 -2.9,1.2 -2.9,1.2c0,0 -0.9,0.2 -2.9,-1.2c-2,-1.4 -13.6,-15 -14,-15.7z" fill="#daab00"/><path d="M-22.29997,100.91505c4.03224,-2.25502 8.58011,-3.42644 13.2,-3.4c4.61376,0.02204 9.14971,1.19038 13.2,3.4c-3.7,4.3 -9,10.3 -10.3,11.2c-2,1.4 -2.9,1.2 -2.9,1.2c0,0 -0.9,0.2 -2.9,-1.2c-1.3,-0.9 -6.5,-6.9 -10.3,-11.2z" fill="#000000" opacity="0.25"/></g><g><path d="M53.30003,124.91505c0,0 0.3,12.1 -2.6,15.6c-2.9,3.5 -30.7,1.7 -31.4,1.3c-0.7,-0.4 -14.3,-12 -15.7,-14c-1.4,-2 -1.2,-2.9 -1.2,-2.9c0,0 -0.2,-0.9 1.2,-2.9c1.4,-2 15,-13.6 15.7,-14c0.7,-0.4 28.5,-2.2 31.4,1.3c2.9,3.5 2.6,15.6 2.6,15.6z" fill="#daab00"/><path d="M14.90003,138.11505c-4.3,-3.7 -10.3,-9 -11.2,-10.3c-1.4,-2 -1.2,-2.9 -1.2,-2.9c0,0 -0.2,-0.9 1.2,-2.9c0.9,-1.3 6.9,-6.6 11.2,-10.3c4.534,8.21599 4.534,18.18401 0,26.4z" fill="#000000" opacity="0.25"/></g><g><path d="M7.80003,153.31501c0.4,0.7 2.2,28.5 -1.3,31.4c-3.5,2.9 -15.6,2.6 -15.6,2.6c0,0 -12.1,0.3 -15.6,-2.6c-3.5,-2.9 -1.7,-30.7 -1.3,-31.4c0.4,-0.7 12,-14.3 14,-15.7c2,-1.4 2.9,-1.2 2.9,-1.2c0,0 0.9,-0.2 2.9,1.2c2,1.4 13.6,15 14,15.7z" fill="#daab00"/><path d="M4.10002,148.81501c-4.03224,2.25502 -8.58011,3.42645 -13.2,3.4c-4.61376,-0.02203 -9.14971,-1.19038 -13.2,-3.4c3.7,-4.3 9,-10.3 10.3,-11.2c2,-1.4 2.9,-1.2 2.9,-1.2c0,0 0.9,-0.2 2.9,1.2c1.3,0.9 6.6,6.9 10.3,11.2z" fill="#000000" opacity="0.25"/></g></g><path d="M273.59999,301.51502h-67.9c-2.8,0 -4.6,0.6 -4.6,-2.2v0c0,-2.76142 2.23857,-5 5,-5h67.9c2.76142,0 5,2.23858 5,5v0c0.1,2.7 -2.6,2.2 -5.4,2.2z" fill="#006267" stroke="none" stroke-width="1"/><path d="M245.30003,299.31505h-36.5c-0.49705,0 -0.9,-0.40295 -0.9,-0.9v0c0,-1.10457 0.89543,-2 2,-2h34.2c1.10457,0 2,0.89543 2,2v0c0.03991,0.23095 -0.02755,0.4675 -0.18325,0.64267c-0.15571,0.17517 -0.38271,0.26989 -0.61675,0.25734z" fill="#006267" stroke="none" stroke-width="1"/><path d="M267.50003,300.11503h-4.2c-0.92784,-0.02615 -1.67385,-0.77217 -1.7,-1.7v0c0,-1.5464 1.2536,-2.8 2.8,-2.8h1.9c1.5464,0 2.8,1.2536 2.8,2.8v0c0.06176,0.44918 -0.08297,0.90221 -0.39372,1.23239c-0.31075,0.33017 -0.75417,0.50207 -1.20628,0.46762z" fill="#006267" stroke="none" stroke-width="1"/><path d="M371.90003,10.61505v127.4c0.00266,4.2708 -1.69274,8.36744 -4.71265,11.38735c-3.01991,3.01991 -7.11655,4.71531 -11.38735,4.71265h-231.6c-4.2708,0.00266 -8.36744,-1.69274 -11.38735,-4.71265c-3.01991,-3.01991 -4.71531,-7.11655 -4.71265,-11.38735v-127.4c-0.01659,-0.70148 0.01682,-1.40326 0.1,-2.1c0.44374,-3.23911 3.23088,-5.64034 6.5,-5.6h250.6c3.25465,-0.00099 6.01948,2.38102 6.5,5.6c0.13297,0.69169 0.16664,1.3988 0.1,2.1z" fill="#ff73f0" stroke="none" stroke-width="1"/><g stroke="none" stroke-width="1"><path d="M367.50003,10.91505v123.1c-0.01102,8.61108 -6.98892,15.58898 -15.6,15.6h-223.8c-8.61107,-0.01102 -15.58898,-6.98892 -15.6,-15.6v-129.2c0,-1.04934 0.85066,-1.9 1.9,-1.9h251.1c1.04934,0 1.9,0.85066 1.9,1.9z" fill="#ff73f0"/><g fill="#000000" opacity="0.2"><path d="M112.60003,134.01504v-106.5h254.9v106.5c-0.01102,8.61108 -6.98892,15.58898 -15.6,15.6h-223.8c-8.61107,-0.01102 -15.58898,-6.98892 -15.6,-15.6z"/></g></g><g stroke="none" stroke-width="1"><path d="M534.10002,-28.68495c0,0 -32.7,-3.2 -50.6,-3.2c-17.9,0 -48.3,2.4 -48.3,2.4c0,0 3.1,-44.7 4.8,-52c1.7,-7.3 7.7,-21.3 16.9,-27.9c9.2,-6.6 12,-10.1 22.8,-10.1c10.8,0 25.4,6.4 34.6,21.4c9.2,15 19.8,69.4 19.8,69.4z" fill="#ffc600"/><path d="M435.70003,-36.28498c0,0 26.1,-4.4 49,-4.4c22.9,0 47.9,4.4 47.9,4.4c1,4.7 1.6,7.6 1.6,7.6c0,0 -32.7,-3.2 -50.6,-3.2c-17.9,0 -48.3,2.4 -48.3,2.4c0,0 0,-2.7 0.4,-6.8z" fill="#daab00"/></g><g fill="#ffffff" stroke="none" stroke-width="1" opacity="0.08"><path d="M487.30003,-56.68495c0.08691,-0.56118 -0.09164,-1.13091 -0.48328,-1.54213c-0.39164,-0.41121 -0.95197,-0.61731 -1.51672,-0.55787c-1.4,0 -2.1,0.9 -2.1,2.7h-2.7c0,-3.3 1.6,-5 4.7,-5c1.27532,-0.0493 2.52323,0.37855 3.5,1.2c0.93389,0.83729 1.44693,2.0466 1.4,3.3c0.00694,1.22621 -0.45861,2.40799 -1.3,3.3c-0.79926,0.8207 -1.70781,1.52735 -2.7,2.1c-0.8272,0.47672 -1.54314,1.12448 -2.1,1.9h6.3v2.6h-9.8c0.07226,-1.69926 0.78711,-3.30768 2,-4.5l3.2,-2.6c0.98591,-0.63718 1.58674,-1.72618 1.6,-2.9z"/><path d="M468.10003,-46.58495h-3v-14.3h7.3c1.1531,-0.06949 2.29165,0.28631 3.2,1c0.89684,0.72801 1.38208,1.84779 1.3,3c0.14868,1.50755 -0.76389,2.9179 -2.2,3.4c1.24898,0.69879 1.95808,2.07758 1.8,3.5v0.7c-0.07162,0.26047 -0.1053,0.52991 -0.1,0.8c0,0.8 0.2,1.3 0.7,1.5v0.4h-3.3c-0.1,-1.3 -0.2,-2.5 -0.3,-3.8c-0.1,-1.3 -0.9,-1.9 -2.4,-1.9h-3zM468.10003,-54.78495h3.5c1.5,0 2.3,-0.6 2.3,-1.9c0,-1.3 -0.7,-1.9 -2.1,-1.9h-3.7z"/></g><g stroke="none" stroke-width="1"><path d="M-34.39997,-98.08495c9.2,-15 23.8,-21.4 34.6,-21.4c10.8,0 13.6,3.5 22.8,10.1c9.2,6.6 15.2,20.6 16.9,27.9c1.7,7.3 4.8,52 4.8,52c0,0 -30.4,-2.4 -48.3,-2.4c-17.9,0 -50.6,3.2 -50.6,3.2c0,0 10.6,-54.4 19.8,-69.4z" fill="#ffc600"/><path d="M44.60003,-29.48495c0,0 -30.4,-2.4 -48.3,-2.4c-17.9,0 -50.6,3.2 -50.6,3.2c0,0 0.6,-2.9 1.6,-7.6c0,0 25,-4.4 47.9,-4.4c22.9,0 49,4.4 49,4.4c0.4,4.1 0.4,6.8 0.4,6.8z" fill="#daab00"/></g><g fill="#ffffff" stroke="none" stroke-width="1" opacity="0.08"><path d="M12.00003,-56.68495c0.0869,-0.56118 -0.09164,-1.13091 -0.48328,-1.54213c-0.39164,-0.41121 -0.95197,-0.61731 -1.51672,-0.55787c-1.4,0 -2.1,0.9 -2.1,2.7h-2.7c0,-3.3 1.6,-5 4.7,-5c1.27532,-0.0493 2.52323,0.37855 3.5,1.2c0.93389,0.83729 1.44693,2.0466 1.4,3.3c0.00694,1.22621 -0.45861,2.40799 -1.3,3.3c-0.79927,0.8207 -1.70781,1.52735 -2.7,2.1c-0.8272,0.47672 -1.54314,1.12448 -2.1,1.9h6.2v2.6h-9.8c0.07226,-1.69926 0.78712,-3.30768 2,-4.5l3.2,-2.6c1.00708,-0.63023 1.64203,-1.71338 1.7,-2.9z"/><path d="M1.80003,-46.68495h-10.1v-14.3h3v11.6h7.1z"/></g></g></g></svg>