<svg version="1.1" xmlns="http://www.w3.org/2000/svg" xmlns:xlink="http://www.w3.org/1999/xlink" width="178.52712" height="104.02818" viewBox="0,0,178.52712,104.02818"><g transform="translate(-150.7367,-127.9867)"><g data-paper-data="{&quot;isPaintingLayer&quot;:true}" fill-rule="nonzero" stroke="none" stroke-width="1" stroke-linecap="butt" stroke-linejoin="miter" stroke-miterlimit="10" stroke-dasharray="" stroke-dashoffset="0" style="mix-blend-mode: normal"><g><path d="M259.555,162.605c-0.7,0.4 -28.5,2.2 -31.4,-1.3c-2.9,-3.5 -2.6,-15.6 -2.6,-15.6c0,0 -0.3,-12.1 2.6,-15.6c2.9,-3.5 30.7,-1.7 31.4,-1.3c0.7,0.4 14.3,12 15.7,14c1.4,2 1.2,2.9 1.2,2.9c0,0 0.2,0.9 -1.2,2.9c-1.4,2 -15,13.6 -15.7,14z" fill="#daab00"/><path d="M264.055,158.905c-2.25502,-4.03224 -3.42644,-8.58011 -3.4,-13.2c0.02203,-4.61376 1.19038,-9.14971 3.4,-13.2c4.3,3.7 10.3,9 11.2,10.3c1.4,2 1.2,2.9 1.2,2.9c0,0 0.2,0.9 -1.2,2.9c-0.9,1.3 -6.9,6.6 -11.2,10.3z" fill="#000000" opacity="0.25"/></g><g><path d="M185.355,145.005c0.4,0.7 2.2,28.5 -1.3,31.4c-3.5,2.9 -15.6,2.6 -15.6,2.6c0,0 -12.1,0.3 -15.6,-2.6c-3.5,-2.9 -1.7,-30.7 -1.3,-31.4c0.4,-0.7 12,-14.3 14,-15.7c2,-1.4 2.9,-1.2 2.9,-1.2c0,0 0.9,-0.2 2.9,1.2c2,1.3 13.6,15 14,15.7z" fill="#daab00"/><path d="M181.655,140.505c-4.03224,2.25502 -8.58011,3.42644 -13.2,3.4c-4.61376,-0.02203 -9.14971,-1.19038 -13.2,-3.4c3.7,-4.3 9,-10.3 10.3,-11.2c2,-1.4 2.9,-1.2 2.9,-1.2c0,0 0.9,-0.2 2.9,1.2c1.3,0.8 6.6,6.8 10.3,11.2z" fill="#000000" opacity="0.25"/></g><g><path d="M188.955,162.105c-0.4,-0.7 -2.2,-28.5 1.3,-31.4c3.5,-2.9 15.6,-2.6 15.6,-2.6c0,0 12.1,-0.3 15.6,2.6c3.5,2.9 1.7,30.7 1.3,31.4c-0.4,0.7 -12,14.3 -14,15.7c-2,1.4 -2.9,1.2 -2.9,1.2c0,0 -0.9,0.2 -2.9,-1.2c-2,-1.4 -13.6,-15 -14,-15.7z" fill="#daab00"/><path d="M192.655,166.605c4.03224,-2.25502 8.58011,-3.42644 13.2,-3.4c4.61376,0.02203 9.14971,1.19038 13.2,3.4c-3.7,4.3 -9,10.3 -10.3,11.2c-2,1.4 -2.9,1.2 -2.9,1.2c0,0 -0.9,0.2 -2.9,-1.2c-1.3,-0.9 -6.6,-6.9 -10.3,-11.2z" fill="#000000" opacity="0.25"/></g><g><path d="M329.255,145.905c0,0 0.3,12.1 -2.6,15.6c-2.9,3.5 -30.7,1.7 -31.4,1.3c-0.7,-0.4 -14.3,-12 -15.7,-14c-1.4,-2 -1.2,-2.9 -1.2,-2.9c0,0 -0.2,-0.9 1.2,-2.9c1.4,-2 15,-13.6 15.7,-14c0.7,-0.4 28.5,-2.2 31.4,1.3c2.8,3.5 2.6,15.6 2.6,15.6z" fill="#daab00"/><path d="M294.155,145.905c-0.02203,4.61376 -1.19038,9.14971 -3.4,13.2c-4.3,-3.7 -10.3,-9 -11.2,-10.3c-1.4,-2 -1.2,-2.9 -1.2,-2.9c0,0 -0.2,-0.9 1.2,-2.9c0.9,-1.3 6.9,-6.6 11.2,-10.3c2.20962,4.05029 3.37797,8.58624 3.4,13.2z" fill="#000000" opacity="0.25"/></g><g><path d="M259.555,215.605c-0.7,0.4 -28.5,2.2 -31.4,-1.3c-2.9,-3.5 -2.6,-15.6 -2.6,-15.6c0,0 -0.3,-12.1 2.6,-15.6c2.9,-3.5 30.7,-1.7 31.4,-1.3c0.7,0.4 14.3,12 15.7,14c1.4,2 1.2,2.9 1.2,2.9c0,0 0.2,0.9 -1.2,2.9c-1.4,2 -15,13.6 -15.7,14z" fill="#3ed8d2"/><path d="M264.055,211.905c-2.25502,-4.03224 -3.42644,-8.58011 -3.4,-13.2c0.02203,-4.61376 1.19038,-9.14971 3.4,-13.2c4.3,3.7 10.3,9 11.2,10.3c1.4,2 1.2,2.9 1.2,2.9c0,0 0.2,0.9 -1.2,2.9c-0.9,1.3 -6.9,6.6 -11.2,10.3z" fill="#ffffff" opacity="0.25"/></g><g><path d="M185.355,198.005c0.4,0.7 2.2,28.5 -1.3,31.4c-3.5,2.9 -15.6,2.6 -15.6,2.6c0,0 -12.1,0.3 -15.6,-2.6c-3.5,-2.9 -1.7,-30.7 -1.3,-31.4c0.4,-0.7 12,-14.3 14,-15.7c2,-1.4 2.9,-1.2 2.9,-1.2c0,0 0.9,-0.2 2.9,1.2c2,1.3 13.6,15 14,15.7z" fill="#3ed8d2"/><path d="M181.655,193.505c-4.03224,2.25502 -8.58011,3.42644 -13.2,3.4c-4.61376,-0.02203 -9.14971,-1.19038 -13.2,-3.4c3.7,-4.3 9,-10.3 10.3,-11.2c2,-1.4 2.9,-1.2 2.9,-1.2c0,0 0.9,-0.2 2.9,1.2c1.3,0.8 6.6,6.8 10.3,11.2z" fill="#ffffff" opacity="0.25"/></g><g><path d="M188.955,215.105c-0.4,-0.7 -2.2,-28.5 1.3,-31.4c3.5,-2.9 15.6,-2.6 15.6,-2.6c0,0 12.1,-0.3 15.6,2.6c3.5,2.9 1.7,30.7 1.3,31.4c-0.4,0.7 -12,14.3 -14,15.7c-2,1.4 -2.9,1.2 -2.9,1.2c0,0 -0.9,0.2 -2.9,-1.2c-2,-1.4 -13.6,-15 -14,-15.7z" fill="#3ed8d2"/><path d="M192.655,219.605c4.03224,-2.25502 8.58011,-3.42644 13.2,-3.4c4.61376,0.02203 9.14971,1.19038 13.2,3.4c-3.7,4.3 -9,10.3 -10.3,11.2c-2,1.4 -2.9,1.2 -2.9,1.2c0,0 -0.9,0.2 -2.9,-1.2c-1.3,-0.9 -6.6,-6.9 -10.3,-11.2z" fill="#ffffff" opacity="0.25"/></g><g><path d="M329.255,198.805c0,0 0.3,12.1 -2.6,15.6c-2.9,3.5 -30.7,1.7 -31.4,1.3c-0.7,-0.4 -14.3,-12 -15.7,-14c-1.4,-2 -1.2,-2.9 -1.2,-2.9c0,0 -0.2,-0.9 1.2,-2.9c1.4,-2 15,-13.6 15.7,-14c0.7,-0.4 28.5,-2.2 31.4,1.3c2.8,3.5 2.6,15.6 2.6,15.6z" fill="#3ed8d2"/><path d="M290.755,212.005c-4.3,-3.7 -10.3,-9 -11.2,-10.3c-1.4,-2 -1.2,-2.9 -1.2,-2.9c0,0 -0.2,-0.9 1.2,-2.9c0.9,-1.3 6.9,-6.6 11.2,-10.3c4.534,8.21599 4.534,18.18401 0,26.4z" fill="#ffffff" opacity="0.25"/></g></g></g></svg>