<svg version="1.1" xmlns="http://www.w3.org/2000/svg" xmlns:xlink="http://www.w3.org/1999/xlink" width="224.1" height="112.4" viewBox="0,0,224.1,112.4"><g transform="translate(-127.94999,-123.8)"><g data-paper-data="{&quot;isPaintingLayer&quot;:true}" fill-rule="nonzero" stroke-linecap="butt" stroke-linejoin="miter" stroke-miterlimit="10" stroke-dasharray="" stroke-dashoffset="0" style="mix-blend-mode: normal"><path d="M155.25,177.4c-14.52509,0 -26.3,-11.77491 -26.3,-26.3c0,-14.52509 11.77491,-26.3 26.3,-26.3c14.52509,0 26.3,11.77491 26.3,26.3c-0.01653,14.51824 -11.78176,26.28347 -26.3,26.3z" fill="#2c2c2c" stroke="none" stroke-width="1"/><path d="M155.25,125.8c-13.96595,0.01653 -25.28347,11.33405 -25.3,25.3c0,13.9728 11.3272,25.3 25.3,25.3c13.9728,0 25.3,-11.3272 25.3,-25.3c0,-13.9728 -11.3272,-25.3 -25.3,-25.3M182.55,151.1c0,15.07737 -12.22263,27.3 -27.3,27.3c-15.07737,0 -27.3,-12.22263 -27.3,-27.3c0,-15.07737 12.22263,-27.3 27.3,-27.3c15.06824,0.02203 27.27797,12.23176 27.3,27.3z" fill="#222222" stroke="none" stroke-width="1"/><path d="M157.25,151.1l12.4,12.4l-2,2l-12.4,-12.4l-12.4,12.4l-2,-2l12.4,-12.4l-12.4,-12.4l2,-2l12.4,12.4l12.4,-12.4l2,2z" fill="#7cb2e8" stroke="#7cb2e8" stroke-width="1.5"/><path d="M211.75,177.3c-10.65545,0.04044 -20.28233,-6.35248 -24.3787,-16.18915c-4.09637,-9.83667 -1.85261,-21.17298 5.68198,-28.70757c7.53459,-7.53459 18.8709,-9.77835 28.70757,-5.68198c9.83667,4.09637 16.22959,13.72325 16.18915,24.3787c-0.07112,14.4403 -11.7597,26.12888 -26.2,26.2z" fill="#2c2c2c" stroke="none" stroke-width="1"/><path d="M211.75,125.9c-13.96595,0.01653 -25.28347,11.33405 -25.3,25.3c0,13.9728 11.3272,25.3 25.3,25.3c13.9728,0 25.3,-11.3272 25.3,-25.3c0,-13.9728 -11.3272,-25.3 -25.3,-25.3M238.95,151.1c0.04044,11.05992 -6.59612,21.05144 -16.80647,25.30259c-10.21034,4.25115 -21.97677,1.92184 -29.79737,-5.89875c-7.82059,-7.82059 -10.1499,-19.58702 -5.89875,-29.79737c4.25115,-10.21034 14.24267,-16.84691 25.30259,-16.80647c14.99032,0.07657 27.12343,12.20968 27.2,27.2z" fill="#222222" stroke="none" stroke-width="1"/><path d="M230.65,151.1c0,10.43818 -8.46182,18.9 -18.9,18.9c-10.43818,0 -18.9,-8.46182 -18.9,-18.9c0,-10.43818 8.46182,-18.9 18.9,-18.9c10.42678,0.02748 18.87252,8.47322 18.9,18.9zM227.75,151.1c0,-8.83656 -7.16344,-16 -16,-16c-8.83656,0 -16,7.16344 -16,16c0,8.83656 7.16344,16 16,16c8.83656,0 16,-7.16344 16,-16z" fill="#ff6666" stroke="#ff6666" stroke-width="1.5"/><path d="M268.25,177.9c-14.52509,0 -26.3,-11.77491 -26.3,-26.3c0,-14.52509 11.77491,-26.3 26.3,-26.3c14.52509,0 26.3,11.77491 26.3,26.3c-0.01653,14.51824 -11.78176,26.28347 -26.3,26.3z" fill="#2c2c2c" stroke="none" stroke-width="1"/><path d="M268.25,126.5c-13.96595,0.01653 -25.28347,11.33405 -25.3,25.3c0,13.9728 11.3272,25.3 25.3,25.3c13.9728,0 25.3,-11.3272 25.3,-25.3c0,-13.9728 -11.3272,-25.3 -25.3,-25.3M295.55,151.8c0,15.07737 -12.22263,27.3 -27.3,27.3c-15.07737,0 -27.3,-12.22263 -27.3,-27.3c0,-15.07737 12.22263,-27.3 27.3,-27.3c15.06824,0.02203 27.27797,12.23176 27.3,27.3z" fill="#222222" stroke="none" stroke-width="1"/><path d="M282.55,137.3v28.6h-28.6v-28.6h25.8zM279.75,140.2h-23v23h23z" fill="#ff69f8" stroke="#ff69f8" stroke-width="1.5"/><path d="M324.75,178.6c-14.52509,0 -26.3,-11.77491 -26.3,-26.3c0,-14.52509 11.77491,-26.3 26.3,-26.3c14.52509,0 26.3,11.77491 26.3,26.3c-0.01653,14.51824 -11.78176,26.28347 -26.3,26.3z" fill="#2c2c2c" stroke="none" stroke-width="1"/><path d="M324.75,127.1c-13.96595,0.01653 -25.28347,11.33405 -25.3,25.3c0,13.9728 11.3272,25.3 25.3,25.3c13.9728,0 25.3,-11.3272 25.3,-25.3c0,-13.9728 -11.3272,-25.3 -25.3,-25.3M352.05,152.4c0,15.07737 -12.22263,27.3 -27.3,27.3c-15.07737,0 -27.3,-12.22263 -27.3,-27.3c0,-15.07737 12.22263,-27.3 27.3,-27.3c15.06824,0.02203 27.27797,12.23176 27.3,27.3z" fill="#222222" stroke="none" stroke-width="1"/><path d="M342.35,163.2h-35.2l1.6,-2.8l16,-27.6l16,27.6zM337.45,160.4l-12.7,-21.9l-12.7,21.9h12.7z" fill="#00ff99" stroke="#00ff99" stroke-width="1.5"/><path d="M155.25,235.2c-14.52509,0 -26.3,-11.77491 -26.3,-26.3c0,-14.52509 11.77491,-26.3 26.3,-26.3c14.52509,0 26.3,11.77491 26.3,26.3c-0.01653,14.51824 -11.78176,26.28347 -26.3,26.3z" fill="#d3d3d3" stroke="none" stroke-width="1"/><path d="M155.25,183.6c-13.96595,0.01653 -25.28347,11.33405 -25.3,25.3c0,13.9728 11.3272,25.3 25.3,25.3c13.9728,0 25.3,-11.3272 25.3,-25.3c0,-13.9728 -11.3272,-25.3 -25.3,-25.3M182.55,208.9c0,15.07737 -12.22263,27.3 -27.3,27.3c-15.07737,0 -27.3,-12.22263 -27.3,-27.3c0,-15.07737 12.22263,-27.3 27.3,-27.3c15.06824,0.02203 27.27797,12.23176 27.3,27.3z" fill="#dddddd" stroke="none" stroke-width="1"/><path d="M157.25,208.9l12.4,12.4l-2,2l-12.4,-12.4l-12.4,12.4l-2,-2l12.4,-12.4l-12.4,-12.4l2,-2l12.4,12.4l12.4,-12.4l2,2z" fill="#c07123" stroke="#c07123" stroke-width="1.5"/><path d="M211.75,235c-14.52509,0 -26.3,-11.77491 -26.3,-26.3c0,-14.52509 11.77491,-26.3 26.3,-26.3c14.52509,0 26.3,11.77491 26.3,26.3c-0.01653,14.51824 -11.78176,26.28347 -26.3,26.3z" fill="#d3d3d3" stroke="none" stroke-width="1"/><path d="M211.75,183.6c-13.96595,0.01653 -25.28347,11.33405 -25.3,25.3c0,13.9728 11.3272,25.3 25.3,25.3c13.9728,0 25.3,-11.3272 25.3,-25.3c0,-13.9728 -11.3272,-25.3 -25.3,-25.3M239.05,208.9c0,15.07737 -12.22263,27.3 -27.3,27.3c-15.07737,0 -27.3,-12.22263 -27.3,-27.3c0,-15.07737 12.22263,-27.3 27.3,-27.3c15.06824,0.02203 27.27797,12.23176 27.3,27.3z" fill="#dddddd" stroke="none" stroke-width="1"/><path d="M230.65,208.8c0,10.43818 -8.46182,18.9 -18.9,18.9c-10.43818,0 -18.9,-8.46182 -18.9,-18.9c0,-10.43818 8.46182,-18.9 18.9,-18.9c10.42678,0.02748 18.87252,8.47322 18.9,18.9zM227.75,208.8c0,-8.83656 -7.16344,-16 -16,-16c-8.83656,0 -16,7.16344 -16,16c0,8.83656 7.16344,16 16,16c8.83656,0 16,-7.16344 16,-16z" fill="#009999" stroke="#009999" stroke-width="1.5"/><path d="M268.25,235c-14.52509,0 -26.3,-11.77491 -26.3,-26.3c0,-14.52509 11.77491,-26.3 26.3,-26.3c14.52509,0 26.3,11.77491 26.3,26.3c-0.01653,14.51824 -11.78176,26.28347 -26.3,26.3z" fill="#d3d3d3" stroke="none" stroke-width="1"/><path d="M268.25,183.6c-13.96595,0.01653 -25.28347,11.33405 -25.3,25.3c0,13.9728 11.3272,25.3 25.3,25.3c13.9728,0 25.3,-11.3272 25.3,-25.3c0,-13.9728 -11.3272,-25.3 -25.3,-25.3M295.55,208.9c0,15.07737 -12.22263,27.3 -27.3,27.3c-15.07737,0 -27.3,-12.22263 -27.3,-27.3c0,-15.07737 12.22263,-27.3 27.3,-27.3c15.06824,0.02203 27.27797,12.23176 27.3,27.3z" fill="#dddddd" stroke="none" stroke-width="1"/><path d="M282.55,194.4v28.6h-28.6v-28.6h25.8zM279.75,197.3h-23v23h23z" fill="#3bbf41" stroke="#3bbf41" stroke-width="1.5"/><path d="M324.75,235.1c-14.52509,0 -26.3,-11.77491 -26.3,-26.3c0,-14.52509 11.77491,-26.3 26.3,-26.3c14.52509,0 26.3,11.77491 26.3,26.3c-0.01653,14.51824 -11.78176,26.28347 -26.3,26.3z" fill="#d3d3d3" stroke="none" stroke-width="1"/><path d="M324.75,183.6c-13.96595,0.01653 -25.28347,11.33405 -25.3,25.3c0,13.9728 11.3272,25.3 25.3,25.3c13.9728,0 25.3,-11.3272 25.3,-25.3c0,-13.9728 -11.3272,-25.3 -25.3,-25.3M352.05,208.9c0,15.07737 -12.22263,27.3 -27.3,27.3c-15.07737,0 -27.3,-12.22263 -27.3,-27.3c0,-15.07737 12.22263,-27.3 27.3,-27.3c15.06824,0.02203 27.27797,12.23176 27.3,27.3z" fill="#dddddd" stroke="none" stroke-width="1"/><path d="M342.35,219.6h-35.2l1.6,-2.8l16,-27.6l16,27.6zM337.45,216.8l-12.7,-21.9l-12.7,21.9h12.7z" fill="#bf1d5f" stroke="#bf1d5f" stroke-width="1.5"/></g></g></svg>