<svg version="1.1" xmlns="http://www.w3.org/2000/svg" xmlns:xlink="http://www.w3.org/1999/xlink" width="28.4" height="46.7" viewBox="0,0,28.4,46.7"><g transform="translate(-225.8,-156.65)"><g data-paper-data="{&quot;isPaintingLayer&quot;:true}" fill-rule="nonzero" stroke="none" stroke-width="1" stroke-linecap="butt" stroke-linejoin="miter" stroke-miterlimit="10" stroke-dasharray="" stroke-dashoffset="0" style="mix-blend-mode: normal"><path d="M240,158.35c-6.90356,0 -12.5,5.59644 -12.5,12.5v18.3c0,6.90356 5.59644,12.5 12.5,12.5c6.90356,0 12.5,-5.59644 12.5,-12.5v-18.3c0,-6.90356 -5.59644,-12.5 -12.5,-12.5M254.2,170.85v18.3c0,7.84244 -6.35756,14.2 -14.2,14.2c-7.84244,0 -14.2,-6.35756 -14.2,-14.2v-18.3c0.02743,-7.83105 6.36895,-14.17257 14.2,-14.2c7.83105,0.02743 14.17257,6.36895 14.2,14.2z" fill="#ffffff"/><path d="M252.5,170.85v18.3c0,6.90356 -5.59644,12.5 -12.5,12.5c-6.90356,0 -12.5,-5.59644 -12.5,-12.5v-18.3c0,-6.90356 5.59644,-12.5 12.5,-12.5c6.90356,0 12.5,5.59644 12.5,12.5z" fill="#a3d9d7"/></g></g></svg>