<svg version="1.1" xmlns="http://www.w3.org/2000/svg" xmlns:xlink="http://www.w3.org/1999/xlink" width="286.00003" height="94.00003" viewBox="0,0,286.00003,94.00003"><g transform="translate(-97,-132.99998)"><g data-paper-data="{&quot;isPaintingLayer&quot;:true}" fill-rule="nonzero" stroke="none" stroke-linecap="butt" stroke-linejoin="miter" stroke-miterlimit="10" stroke-dasharray="" stroke-dashoffset="0" style="mix-blend-mode: normal"><g><g><path d="M144,225.5c-25.12896,0 -45.5,-20.37104 -45.5,-45.5c0,-25.12896 20.37104,-45.5 45.5,-45.5c25.12896,0 45.5,20.37104 45.5,45.5c-0.02205,25.11982 -20.38018,45.47795 -45.5,45.5z" fill="#c1272d" stroke-width="1"/><path d="M144,136c-24.30053,0 -44,19.69947 -44,44c0,24.30053 19.69947,44 44,44c24.30053,0 44,-19.69947 44,-44c0,-24.30053 -19.69947,-44 -44,-44M177.24869,146.75131c8.81709,8.81709 13.7646,20.77945 13.75131,33.24869c0,25.95738 -21.04262,47 -47,47c-25.95738,0 -47,-21.04262 -47,-47c0,-25.95738 21.04262,-47 47,-47c12.46924,-0.01329 24.4316,4.93422 33.24869,13.75131z" fill="#ffc600" stroke-width="1"/><path d="M144,135.95c24.30053,0 44.05,19.74947 44.05,44.05c0,24.30053 -19.74947,44.05 -44.05,44.05c-24.30053,0 -44.05,-19.74947 -44.05,-44.05c0,-24.30053 19.74947,-44.05 44.05,-44.05" data-paper-data="{&quot;noHover&quot;:false,&quot;origItem&quot;:[&quot;Path&quot;,{&quot;applyMatrix&quot;:true,&quot;segments&quot;:[[[144,136],[0,0],[-24.30053,0]],[[100,180],[0,-24.30053],[0,24.30053]],[[144,224],[-24.30053,0],[24.30053,0]],[[188,180],[0,24.30053],[0,-24.30053]],[[144,136],[24.30053,0],[0,0]]],&quot;fillColor&quot;:[0,0,0,1]}]}" fill="#daab00" stroke-width="0.5"/></g><path d="M116.7,180c0,-15.07737 12.22263,-27.3 27.3,-27.3c15.07737,0 27.3,12.22263 27.3,27.3c0,15.07737 -12.22263,27.3 -27.3,27.3c-15.07737,0 -27.3,-12.22263 -27.3,-27.3z" fill="#ffc600" stroke-width="1"/></g><g stroke-width="1"><g><path d="M240,225.5c-25.12896,0 -45.5,-20.37104 -45.5,-45.5c0,-25.12896 20.37104,-45.5 45.5,-45.5c25.12896,0 45.5,20.37104 45.5,45.5c-0.02205,25.11982 -20.38018,45.47795 -45.5,45.5z" fill="#3ed8d2"/><path d="M240,136c-24.30053,0 -44,19.69947 -44,44c0,24.30053 19.69947,44 44,44c24.30053,0 44,-19.69947 44,-44c0,-24.30053 -19.69947,-44 -44,-44M273.24869,146.75131c8.81709,8.81709 13.7646,20.77945 13.75131,33.24869c0,25.95738 -21.04262,47 -47,47c-25.95738,0 -47,-21.04262 -47,-47c0,-25.95738 21.04262,-47 47,-47c12.46924,-0.01329 24.4316,4.93422 33.24869,13.75131z" fill="#30d5cd"/></g><path d="M212.7,180c0,-15.07737 12.22263,-27.3 27.3,-27.3c15.07737,0 27.3,12.22263 27.3,27.3c0,15.07737 -12.22263,27.3 -27.3,27.3c-15.07737,0 -27.3,-12.22263 -27.3,-27.3z" fill="#1fd2c6"/><g fill="#000000"><path d="M222.1,166.5h4.6v22.4h13.4v4h-18z"/><path d="M248.9,177.8c2.8,0.1 5.7,-0.9 5.7,-4.1c0.00038,-1.03458 -0.43127,-2.02233 -1.19075,-2.72486c-0.75949,-0.70253 -1.77783,-1.05601 -2.80925,-0.97514c-2.9,0 -4.4,2.6 -4.3,5.3h-4.2c0.2,-5 3.4,-8.8 8.6,-8.8c4,0 8.2,2.3 8.2,6.9c0,2.6 -1.1,4.7 -3.7,5.5v0.1c3,0.6 4.7,3.1 4.7,6.5c0,4.9 -4.3,7.9 -9.2,7.9c-6,0 -9,-3.6 -9.1,-9h4.2c-0.1,3.1 1.6,5.5 4.9,5.5c2.8,0 5,-1.7 5,-4.6c0,-4 -3.4,-4.5 -6.8,-4.4z"/></g></g><g stroke-width="1"><g><path d="M336,225.5c-25.12896,0 -45.5,-20.37104 -45.5,-45.5c0,-25.12896 20.37104,-45.5 45.5,-45.5c25.12896,0 45.5,20.37104 45.5,45.5c-0.02205,25.11982 -20.38018,45.47795 -45.5,45.5z" fill="#3ed8d2"/><path d="M336,136c-24.30053,0 -44,19.69947 -44,44c0,24.30053 19.69947,44 44,44c24.30053,0 44,-19.69947 44,-44c0,-24.30053 -19.69947,-44 -44,-44M369.24869,146.75131c8.81709,8.81709 13.7646,20.77945 13.75131,33.24869c0,25.95738 -21.04262,47 -47,47c-25.95738,0 -47,-21.04262 -47,-47c0,-25.95738 21.04262,-47 47,-47c12.46924,-0.01329 24.4316,4.93422 33.24869,13.75131z" fill="#30d5cd"/></g><path d="M308.7,180c0,-15.07737 12.22263,-27.3 27.3,-27.3c15.07737,0 27.3,12.22263 27.3,27.3c0,15.07737 -12.22263,27.3 -27.3,27.3c-15.07737,0 -27.3,-12.22263 -27.3,-27.3z" fill="#1fd2c6"/><g fill="#000000"><path d="M315.7,166.5h12.6c5.8,0 8.7,2.7 8.7,7.1c0,5.1 -3.5,6.4 -4.4,6.7v0.1c1.6,0.2 3.9,1.4 3.9,5.6c0,3.1 0.4,5.9 1.4,7h-5c-0.58546,-1.21157 -0.82757,-2.56045 -0.7,-3.9c0,-4.8 -1,-7 -5.3,-7h-6.8v10.9h-4.6v-26.5zM320.3,178.6h7.6c3,0 4.5,-1.4 4.5,-4.2c0,-3.4 -2.2,-4 -4.6,-4h-7.5z"/><path d="M347.3,177.8c2.8,0.1 5.7,-0.9 5.7,-4.1c0.00038,-1.03458 -0.43127,-2.02233 -1.19075,-2.72486c-0.75949,-0.70253 -1.77783,-1.05601 -2.80925,-0.97514c-2.9,0 -4.4,2.6 -4.3,5.3h-4.2c0.2,-5 3.4,-8.8 8.6,-8.8c4,0 8.2,2.3 8.2,6.9c0,2.6 -1.1,4.7 -3.7,5.5v0.1c3,0.6 4.7,3.1 4.7,6.5c0,4.9 -4.3,7.9 -9.2,7.9c-6,0 -9,-3.6 -9.1,-9h4.2c-0.1,3.1 1.6,5.5 4.9,5.5c2.8,0 5,-1.7 5,-4.6c0,-4 -3.4,-4.5 -6.8,-4.4z"/></g></g></g></g></svg>